 ::::::::::: ::::    ::::      :::      :::::::: ::::::::::: ::::    ::: ::::::::::
                     :+:     +:+:+: :+:+:+   :+: :+:   :+:    :+:    :+:     :+:+:   :+: :+:        
                     +:+     +:+ +:+:+ +:+  +:+   +:+  +:+           +:+     :+:+:+  +:+ +:+        
                     +#+     +#+  +:+  +#+ +#++:++#++: :#:           +#+     +#+ +:+ +#+ +#++:++#  
                     +#+     +#+       +#+ +#+     +#+ +#+   +#+#    +#+     +#+  +#+#+# +#+        
                     #+#     #+#       #+# #+#     #+# #+#    #+#    #+#     #+#   #+#+# #+#        
                 ########### ###       ### ###     ###  ######## ########### ###    #### ##########  
                                               



                          Another Fine Release Brought to you from - IMAGiNE                  
                                             http://imaginegroup.me/  
   
********************************************************************************************************************                                
                                      Avatar DVDSCR AC3 XVID - IMAGiNE.                                
********************************************************************************************************************

Ripper ...........: IMAGiNE                                      IMDB Rating.......:8.6/10                              
Video Codec.......: XVID                                         Release Date......:2010-12-31
Audio Codec.......:AC3                                           Theatre Date......:12/18/09
Audio Bitrate.....:192                                           Runtime...........:162 mn
Subtitles.........:Harcoded Where Nedded                         Language..........:ENGLISH
Resolution...... 656 x 368                                       IMDB URL..........:http://www.imdb.com/title/tt0499549/


DETAILS:

Format                           : AVI
Format/Info                      : Audio Video Interleave
Format profile                   : OpenDML
File size                        : 2.06 GiB
Duration                         : 2h 36mn
Overall bit rate                 : 1 876 Kbps
Writing application              : VirtualDubMod 1.5.10.2 (build 2540/release)
Writing library                  : VirtualDubMod build 2540/release

Video
ID                               : 0
Format                           : MPEG-4 Visual
Format profile                   : Advanced Simple@L5
Format settings, BVOP            : Yes
Format settings, QPel            : No
Format settings, GMC             : No warppoints
Format settings, Matrix          : Default (MPEG)
Codec ID                         : XVID
Codec ID/Hint                    : XviD
Duration                         : 2h 36mn
Bit rate                         : 1 672 Kbps
Width                            : 656 pixels
Height                           : 368 pixels
Display aspect ratio             : 16:9
Frame rate                       : 23.976 fps
Resolution                       : 8 bits
Colorimetry                      : 4:2:0
Scan type                        : Progressive
Bits/(Pixel*Frame)               : 0.289
Stream size                      : 1.83 GiB (89%)
Writing library                  : XviD 1.2.1 (UTC 2008-12-04)

Audio
ID                               : 1
Format                           : AC-3
Format/Info                      : Audio Coding 3
Codec ID                         : 2000
Duration                         : 2h 36mn
Bit rate mode                    : Constant
Bit rate                         : 192 Kbps
Channel(s)                       : 2 channels
Channel positions                : L R
Sampling rate                    : 48.0 KHz
Stream size                      : 216 MiB (10%)
Alignment                        : Split accross interleaves
Interleave, duration             : 42 ms (1.00 video frame)
Interleave, preload duration     : 500 ms




NOTES:

IMAGiNE bringing you another release.....

Well we found this dvd scr... Thanks to the original person... .We did our normal stuff to it saturation,contrast and brightness. But it was very little as the original file was decent.
Screens and sample are added as always so...
Enjoy!!!



GREETS:

FLAWL3SS,ViSiON,DEViSE,FUSiON,STG,SecretMyth,BirdFlu,ELEKTRI4KA
And to all the other p2p grps past and present

Special thanks to Python-Lair for the server
And special thanks to supreme-speeds.com for the ripbox


Looking for these,syncers,*CAMMER*,silver supplier.....Have anything to offer????......
Contact us imaginegroup@hushmail.com